<svg width="512" height="512" viewBox="0 0 512 512" fill="none" xmlns="http://www.w3.org/2000/svg">
  <!-- Background Circle -->
  <rect width="512" height="512" rx="128" fill="#000000"/>
  
  <!-- Fingerprint Icon -->
  <g transform="translate(256, 256) scale(8)">
    <!-- Main fingerprint pattern -->
    <path d="M-12 -8 C-12 -12, -8 -16, -4 -16 C0 -16, 4 -12, 4 -8 C4 -4, 0 0, -4 0 C-8 0, -12 -4, -12 -8 Z" 
          fill="none" stroke="white" stroke-width="1.5" stroke-linecap="round"/>
    
    <path d="M-10 -8 C-10 -10.5, -7.5 -13, -4 -13 C-0.5 -13, 2 -10.5, 2 -8 C2 -5.5, -0.5 -3, -4 -3 C-7.5 -3, -10 -5.5, -10 -8 Z" 
          fill="none" stroke="white" stroke-width="1.5" stroke-linecap="round"/>
    
    <path d="M-8 -8 C-8 -9, -7 -10, -4 -10 C-1 -10, 0 -9, 0 -8 C0 -7, -1 -6, -4 -6 C-7 -6, -8 -7, -8 -8 Z" 
          fill="none" stroke="white" stroke-width="1.5" stroke-linecap="round"/>
    
    <!-- Outer curves -->
    <path d="M-14 -8 C-14 -14, -10 -18, -4 -18 C2 -18, 6 -14, 6 -8" 
          fill="none" stroke="white" stroke-width="1.5" stroke-linecap="round"/>
    
    <path d="M-14 -6 C-14 -12, -10 -16, -4 -16 C2 -16, 6 -12, 6 -6" 
          fill="none" stroke="white" stroke-width="1.5" stroke-linecap="round"/>
    
    <!-- Inner details -->
    <path d="M-6 -8 C-6 -7, -5.5 -6.5, -4 -6.5 C-2.5 -6.5, -2 -7, -2 -8 C-2 -9, -2.5 -9.5, -4 -9.5 C-5.5 -9.5, -6 -9, -6 -8 Z" 
          fill="none" stroke="white" stroke-width="1.5" stroke-linecap="round"/>
    
    <!-- Bottom curves -->
    <path d="M-12 -2 C-12 2, -8 6, -4 6 C0 6, 4 2, 4 -2" 
          fill="none" stroke="white" stroke-width="1.5" stroke-linecap="round"/>
    
    <path d="M-10 0 C-10 3, -7 6, -4 6 C-1 6, 2 3, 2 0" 
          fill="none" stroke="white" stroke-width="1.5" stroke-linecap="round"/>
    
    <path d="M-8 2 C-8 4, -6 6, -4 6 C-2 6, 0 4, 0 2" 
          fill="none" stroke="white" stroke-width="1.5" stroke-linecap="round"/>
    
    <!-- Additional pattern lines -->
    <path d="M-16 -8 C-16 -16, -12 -20, -4 -20 C4 -20, 8 -16, 8 -8" 
          fill="none" stroke="white" stroke-width="1.2" stroke-linecap="round"/>
    
    <path d="M-14 4 C-14 8, -10 12, -4 12 C2 12, 6 8, 6 4" 
          fill="none" stroke="white" stroke-width="1.2" stroke-linecap="round"/>
    
    <!-- Side details -->
    <path d="M-16 -4 C-16 -10, -12 -14, -4 -14" 
          fill="none" stroke="white" stroke-width="1" stroke-linecap="round"/>
    
    <path d="M8 -4 C8 -10, 4 -14, -4 -14" 
          fill="none" stroke="white" stroke-width="1" stroke-linecap="round"/>
    
    <path d="M-16 0 C-16 6, -12 10, -4 10" 
          fill="none" stroke="white" stroke-width="1" stroke-linecap="round"/>
    
    <path d="M8 0 C8 6, 4 10, -4 10" 
          fill="none" stroke="white" stroke-width="1" stroke-linecap="round"/>
  </g>
</svg>
