<svg width="420" height="640" viewBox="0 0 420 640" fill="none" xmlns="http://www.w3.org/2000/svg">
  <!-- Mobile Phone Frame -->
  <rect width="420" height="640" rx="32" fill="#1f2937"/>
  
  <!-- Phone Inner Screen -->
  <rect x="20" y="60" width="380" height="520" rx="24" fill="white"/>
  
  <!-- Status Bar -->
  <rect x="20" y="60" width="380" height="32" rx="24" fill="#f9fafb"/>
  <text x="40" y="80" font-family="system-ui" font-size="12" font-weight="500" fill="black">9:41</text>
  <circle cx="360" cy="76" r="3" fill="#10b981"/>
  <rect x="368" y="72" width="16" height="8" rx="2" fill="transparent" stroke="black" stroke-width="1"/>
  <rect x="370" y="74" width="12" height="4" fill="black"/>
  
  <!-- App Header -->
  <rect x="20" y="92" width="380" height="60" fill="white" stroke="#e5e7eb"/>
  <rect x="40" y="110" width="24" height="24" rx="6" fill="black"/>
  <text x="76" y="128" font-family="system-ui" font-size="16" font-weight="600" fill="black">CredifyU</text>
  <rect x="140" y="114" width="32" height="16" rx="8" fill="transparent" stroke="black"/>
  <text x="148" y="124" font-family="system-ui" font-size="8" fill="black">Beta</text>
  
  <!-- Main Content - Role Selection -->
  <rect x="20" y="152" width="380" height="428" fill="black"/>
  
  <!-- Hero Content -->
  <g transform="translate(40, 180)">
    <!-- Badge -->
    <rect x="0" y="0" width="120" height="24" rx="12" fill="rgba(255,255,255,0.1)" stroke="rgba(255,255,255,0.2)"/>
    <circle cx="12" cy="12" r="2" fill="white"/>
    <text x="20" y="16" font-family="system-ui" font-size="10" fill="white">Privacy-first digital identity</text>
    
    <!-- Main Heading -->
    <text x="0" y="50" font-family="system-ui" font-size="20" font-weight="600" fill="white">Own your digital</text>
    <text x="0" y="74" font-family="system-ui" font-size="20" font-weight="600" fill="white">student identity</text>
    <text x="0" y="98" font-family="system-ui" font-size="20" font-weight="600" fill="white">with CredifyU</text>
    
    <!-- Description -->
    <text x="0" y="124" font-family="system-ui" font-size="12" fill="#d1d5db">Store verified credentials, share via</text>
    <text x="0" y="140" font-family="system-ui" font-size="12" fill="#d1d5db">secure QR, and streamline verification</text>
    <text x="0" y="156" font-family="system-ui" font-size="12" fill="#d1d5db">between all parties.</text>
    
    <!-- Buttons -->
    <rect x="0" y="180" width="100" height="36" rx="18" fill="white"/>
    <text x="20" y="202" font-family="system-ui" font-size="14" font-weight="500" fill="black">Open App</text>
    
    <rect x="120" y="180" width="120" height="36" rx="18" fill="transparent" stroke="white"/>
    <text x="140" y="202" font-family="system-ui" font-size="14" fill="white">Explore features</text>
    
    <!-- Mobile App Features -->
    <g transform="translate(0, 240)">
      <!-- Role Cards -->
      <rect x="0" y="0" width="100" height="80" rx="12" fill="rgba(255,255,255,0.1)" stroke="rgba(255,255,255,0.2)"/>
      <rect x="12" y="16" width="20" height="20" rx="4" fill="white"/>
      <text x="12" y="52" font-family="system-ui" font-size="12" font-weight="500" fill="white">Student</text>
      <text x="12" y="66" font-family="system-ui" font-size="10" fill="#d1d5db">Store &amp; Share</text>
      
      <rect x="120" y="0" width="100" height="80" rx="12" fill="rgba(255,255,255,0.1)" stroke="rgba(255,255,255,0.2)"/>
      <rect x="132" y="16" width="20" height="20" rx="4" fill="white"/>
      <text x="132" y="52" font-family="system-ui" font-size="12" font-weight="500" fill="white">College</text>
      <text x="132" y="66" font-family="system-ui" font-size="10" fill="#d1d5db">Issue Records</text>
      
      <rect x="240" y="0" width="100" height="80" rx="12" fill="rgba(255,255,255,0.1)" stroke="rgba(255,255,255,0.2)"/>
      <rect x="252" y="16" width="20" height="20" rx="4" fill="white"/>
      <text x="252" y="52" font-family="system-ui" font-size="12" font-weight="500" fill="white">Authority</text>
      <text x="252" y="66" font-family="system-ui" font-size="10" fill="#d1d5db">Verify Instantly</text>
      
      <!-- QR Code Section -->
      <rect x="80" y="100" width="80" height="80" rx="8" fill="white"/>
      <g transform="translate(90, 110)">
        <!-- QR Code Pattern -->
        <rect x="0" y="0" width="4" height="4" fill="black"/>
        <rect x="8" y="0" width="4" height="4" fill="black"/>
        <rect x="16" y="0" width="4" height="4" fill="black"/>
        <rect x="24" y="0" width="4" height="4" fill="black"/>
        <rect x="32" y="0" width="4" height="4" fill="black"/>
        <rect x="40" y="0" width="4" height="4" fill="black"/>
        <rect x="48" y="0" width="4" height="4" fill="black"/>
        <rect x="56" y="0" width="4" height="4" fill="black"/>
        
        <rect x="0" y="4" width="4" height="4" fill="black"/>
        <rect x="24" y="4" width="4" height="4" fill="black"/>
        <rect x="56" y="4" width="4" height="4" fill="black"/>
        
        <rect x="0" y="8" width="4" height="4" fill="black"/>
        <rect x="8" y="8" width="4" height="4" fill="black"/>
        <rect x="16" y="8" width="4" height="4" fill="black"/>
        <rect x="32" y="8" width="4" height="4" fill="black"/>
        <rect x="56" y="8" width="4" height="4" fill="black"/>
        
        <rect x="0" y="12" width="4" height="4" fill="black"/>
        <rect x="8" y="12" width="4" height="4" fill="black"/>
        <rect x="16" y="12" width="4" height="4" fill="black"/>
        <rect x="32" y="12" width="4" height="4" fill="black"/>
        <rect x="48" y="12" width="4" height="4" fill="black"/>
        <rect x="56" y="12" width="4" height="4" fill="black"/>
        
        <rect x="0" y="16" width="4" height="4" fill="black"/>
        <rect x="8" y="16" width="4" height="4" fill="black"/>
        <rect x="16" y="16" width="4" height="4" fill="black"/>
        <rect x="24" y="16" width="4" height="4" fill="black"/>
        <rect x="40" y="16" width="4" height="4" fill="black"/>
        <rect x="56" y="16" width="4" height="4" fill="black"/>
        
        <rect x="0" y="20" width="4" height="4" fill="black"/>
        <rect x="56" y="20" width="4" height="4" fill="black"/>
        
        <rect x="0" y="24" width="4" height="4" fill="black"/>
        <rect x="8" y="24" width="4" height="4" fill="black"/>
        <rect x="16" y="24" width="4" height="4" fill="black"/>
        <rect x="24" y="24" width="4" height="4" fill="black"/>
        <rect x="32" y="24" width="4" height="4" fill="black"/>
        <rect x="40" y="24" width="4" height="4" fill="black"/>
        <rect x="48" y="24" width="4" height="4" fill="black"/>
        <rect x="56" y="24" width="4" height="4" fill="black"/>
        
        <rect x="16" y="32" width="4" height="4" fill="black"/>
        <rect x="24" y="32" width="4" height="4" fill="black"/>
        <rect x="40" y="32" width="4" height="4" fill="black"/>
        
        <rect x="0" y="36" width="4" height="4" fill="black"/>
        <rect x="8" y="36" width="4" height="4" fill="black"/>
        <rect x="16" y="36" width="4" height="4" fill="black"/>
        <rect x="24" y="36" width="4" height="4" fill="black"/>
        <rect x="32" y="36" width="4" height="4" fill="black"/>
        <rect x="40" y="36" width="4" height="4" fill="black"/>
        <rect x="48" y="36" width="4" height="4" fill="black"/>
        <rect x="56" y="36" width="4" height="4" fill="black"/>
        
        <rect x="0" y="40" width="4" height="4" fill="black"/>
        <rect x="24" y="40" width="4" height="4" fill="black"/>
        <rect x="56" y="40" width="4" height="4" fill="black"/>
        
        <rect x="0" y="44" width="4" height="4" fill="black"/>
        <rect x="8" y="44" width="4" height="4" fill="black"/>
        <rect x="16" y="44" width="4" height="4" fill="black"/>
        <rect x="32" y="44" width="4" height="4" fill="black"/>
        <rect x="48" y="44" width="4" height="4" fill="black"/>
        <rect x="56" y="44" width="4" height="4" fill="black"/>
        
        <rect x="0" y="48" width="4" height="4" fill="black"/>
        <rect x="8" y="48" width="4" height="4" fill="black"/>
        <rect x="16" y="48" width="4" height="4" fill="black"/>
        <rect x="24" y="48" width="4" height="4" fill="black"/>
        <rect x="40" y="48" width="4" height="4" fill="black"/>
        <rect x="56" y="48" width="4" height="4" fill="black"/>
        
        <rect x="0" y="52" width="4" height="4" fill="black"/>
        <rect x="8" y="52" width="4" height="4" fill="black"/>
        <rect x="16" y="52" width="4" height="4" fill="black"/>
        <rect x="24" y="52" width="4" height="4" fill="black"/>
        <rect x="32" y="52" width="4" height="4" fill="black"/>
        <rect x="40" y="52" width="4" height="4" fill="black"/>
        <rect x="48" y="52" width="4" height="4" fill="black"/>
        <rect x="56" y="52" width="4" height="4" fill="black"/>
      </g>
      
      <text x="110" y="194" font-family="system-ui" font-size="10" fill="white" text-anchor="middle">Scan to Verify</text>
    </g>
  </g>
  
  <!-- Home Indicator -->
  <rect x="170" y="600" width="80" height="4" rx="2" fill="#6b7280"/>
</svg>
